<svg xmlns="http://www.w3.org/2000/svg" width="91.06" height="91.41" viewBox="0 0 91.06 91.41">
  <g id="Grupo_162" data-name="Grupo 162" transform="translate(-10578 -1498.93)">
    <g id="Grupo_161" data-name="Grupo 161">
      <path id="Trazado_59" data-name="Trazado 59" d="M139.46,113.84a5.134,5.134,0,0,1-5.13,5.13H92.56V38.94h41.78a5.134,5.134,0,0,1,5.13,5.13v69.77Zm-57.94,0V44.07a5.134,5.134,0,0,1,5.13-5.13h.39v80.02h-.39A5.132,5.132,0,0,1,81.52,113.84Zm52.82-80.41H86.64A10.648,10.648,0,0,0,76,44.07v69.77a10.648,10.648,0,0,0,10.64,10.64h47.69a10.648,10.648,0,0,0,10.64-10.64V44.07A10.64,10.64,0,0,0,134.34,33.43Z" transform="translate(10502 1465.5)" fill="#c00"/>
      <path id="Trazado_60" data-name="Trazado 60" d="M135.32,52.74H96.69a2.76,2.76,0,1,0,0,5.52h38.63a2.76,2.76,0,0,0,0-5.52Z" transform="translate(10502 1455.5)" fill="#0e2d4f"/>
      <path id="Trazado_61" data-name="Trazado 61" d="M135.32,61.02H96.69a2.76,2.76,0,1,0,0,5.52h38.63a2.76,2.76,0,0,0,0-5.52Z" transform="translate(10502 1455.5)" fill="#0e2d4f"/>
      <path id="Trazado_62" data-name="Trazado 62" d="M161.12,111.31l-2.35,4.81-2.35-4.81a4.084,4.084,0,0,1-.41-1.79V52.74h5.52v56.78A4.084,4.084,0,0,1,161.12,111.31ZM158,38.94h1.55a2.046,2.046,0,0,1,1.99,2.1v6.17h-5.52V41.04A2.051,2.051,0,0,1,158,38.94Zm1.55-5.51H158a7.567,7.567,0,0,0-7.5,7.62v68.48a9.729,9.729,0,0,0,.97,4.21l4.58,9.39a3.034,3.034,0,0,0,5.46,0l4.58-9.39a9.7,9.7,0,0,0,.97-4.21V41.05A7.582,7.582,0,0,0,159.55,33.43Z" transform="translate(10502 1465.5)" fill="#0e2d4f"/>
    </g>
  </g>
</svg>
