<svg id="Grupo_144" data-name="Grupo 144" xmlns="http://www.w3.org/2000/svg" width="78.428" height="119.225" viewBox="0 0 78.428 119.225">
  <path id="Trazado_236" data-name="Trazado 236" d="M55.528,96.278a11.681,11.681,0,0,0-8.014-3.528,13.756,13.756,0,0,0-9.252,4.342,13.772,13.772,0,0,0-9.252-4.325,11.706,11.706,0,0,0-8.056,3.511,11.165,11.165,0,0,0-3.443,10.16c1.382,9.727,12.331,20.073,19.709,23.8a2.263,2.263,0,0,0,2.035,0c7.378-3.731,18.352-14.078,19.709-23.8A11.131,11.131,0,0,0,55.528,96.278Zm-.992,9.5H54.51c-.975,6.793-9.049,15.842-16.274,19.87-7.107-4.028-15.3-12.992-16.274-19.87A6.665,6.665,0,0,1,24,99.551a7.4,7.4,0,0,1,4.953-2.264c4.1,0,7.4,4.529,7.42,4.529a2.263,2.263,0,0,0,3.689,0s3.35-4.529,7.42-4.529a7.36,7.36,0,0,1,4.953,2.264A6.618,6.618,0,0,1,54.535,105.776Z" transform="translate(-2.635 -27.105)" fill="#c00"/>
  <path id="Trazado_237" data-name="Trazado 237" d="M74.2,0H50.179a4.432,4.432,0,0,0-3.265,1.392L43.166,5.482C41.529,6.69,38.408,8.5,36.178,8.739a4.4,4.4,0,0,0-.441.069c-.653.13-6.6,1.476-13.357,7.073-.076.061-.144.122-.212.184-2.841,2.7-6.615,5.329-7.989,5.574h-.136A5.343,5.343,0,0,0,9.388,23.9a4.3,4.3,0,0,0,.127,4.733c1.577,2.462,5.258,4.114,9.159,4.114.2,0,.382,0,.577-.008a8.455,8.455,0,0,0,.763,4.611A5.538,5.538,0,0,0,21,38.7v8.426H9.049a4.331,4.331,0,0,0-4.52,3.961L0,115.142a4.322,4.322,0,0,0,4.529,4.083H68.455a4.321,4.321,0,0,0,4.529-4.075.67.67,0,0,0-.008-.13l-4.52-63.8A4.317,4.317,0,0,0,63.968,47.1H51.935V38.613a12.363,12.363,0,0,0-.382-3.081,20.516,20.516,0,0,0,.873-2.684,75.05,75.05,0,0,0,5.114-6.988c.7-.749,2.332-2.531,3.053-3.273L75.171,8.472l2.061-1.988a3.606,3.606,0,0,0,1.2-2.661A4.042,4.042,0,0,0,74.2,0ZM49.06,30.515c-.365.459-.594.742-.594.742a14.5,14.5,0,0,1-1.6,4.458,2.783,2.783,0,0,1-2.3,1.59c-1.526,0-2.8-1.7-2.8-1.7-1.119,1.728-2.188,2.309-3.121,2.309-1.866,0-3.172-2.309-3.172-2.309-1.493,1.606-2.7,2.164-3.638,2.164C29.733,37.771,28.9,35,28.9,35a2.975,2.975,0,0,1-3.028,1.85,2.293,2.293,0,0,1-.237-.008,3.7,3.7,0,0,1-.39-.031c-2.349-.627-1.976-3.869-1.238-6.476a27.643,27.643,0,0,1,1.23-3.425,12.7,12.7,0,0,1-6.564,2.011c-4.8,0-7.259-3.464-4.63-3.464h.2c3.884,0,11-6.767,11-6.767,6.123-5.077,11.432-6.163,11.432-6.163,4.554-.482,9.507-4.343,9.507-4.343l3.994-4.366H74.187l-16.741,16.2c-.941.963-3.485,3.747-3.485,3.747A65.071,65.071,0,0,1,49.06,30.515ZM25.874,40.677a9.271,9.271,0,0,0,2.146-.245,6.783,6.783,0,0,0,3.816,1.162,7.608,7.608,0,0,0,3.316-.772,7.126,7.126,0,0,0,3.494.918,6.979,6.979,0,0,0,3.621-1.009,6.83,6.83,0,0,0,2.3.4,6.5,6.5,0,0,0,2.773-.581V47.1H25.543l-.068-6.43C25.6,40.677,25.73,40.677,25.874,40.677ZM54.4,57.345H51.935V51.221H63.9l4.529,63.8L4.5,115.249,9.032,51.183H21v6.262H18.555a2.052,2.052,0,1,0,0,4.083h9.439a2.052,2.052,0,1,0,0-4.083H25.543V51.221H47.431v6.124H44.964a2.052,2.052,0,1,0,0,4.083H54.4a2.052,2.052,0,1,0,0-4.083Z" fill="#0e2d4f"/>
</svg>
