<svg id="Grupo_150" data-name="Grupo 150" xmlns="http://www.w3.org/2000/svg" width="146.233" height="75.167" viewBox="0 0 146.233 75.167">
  <circle id="Elipse_4" data-name="Elipse 4" cx="5.324" cy="5.324" r="5.324" transform="translate(21.747 53.737)" fill="#c00"/>
  <circle id="Elipse_5" data-name="Elipse 5" cx="5.324" cy="5.324" r="5.324" transform="translate(114.858 53.737)" fill="#c00"/>
  <g id="Grupo_149" data-name="Grupo 149">
    <g id="Grupo_148" data-name="Grupo 148">
      <g id="Grupo_147" data-name="Grupo 147" transform="translate(11.08 37.808)">
        <path id="Trazado_244" data-name="Trazado 244" d="M113.526,48.68H47.38a2.86,2.86,0,0,1,0-5.72h66.146a2.86,2.86,0,1,1,0,5.72Z" transform="translate(-16.419 -42.96)" fill="#c00"/>
        <path id="Trazado_245" data-name="Trazado 245" d="M134.381,81.052a15.991,15.991,0,1,1,15.991-15.991A16.036,16.036,0,0,1,134.381,81.052Zm0-26.385A10.279,10.279,0,1,0,144.66,64.946,10.308,10.308,0,0,0,134.381,54.667Z" transform="translate(-25.279 -43.693)" fill="#0e2d4f"/>
        <path id="Trazado_246" data-name="Trazado 246" d="M28.581,81.052A15.991,15.991,0,1,1,44.572,65.061,16.036,16.036,0,0,1,28.581,81.052Zm0-26.385A10.279,10.279,0,1,0,38.86,64.946,10.308,10.308,0,0,0,28.581,54.667Z" transform="translate(-12.59 -43.693)" fill="#0e2d4f"/>
      </g>
      <path id="Trazado_247" data-name="Trazado 247" d="M143.372,60.892h-7.657a2.86,2.86,0,0,1,0-5.72h4.8V43.185c0-11.652-13.826-13.368-15.3-13.6H96.077a3.144,3.144,0,0,1-2.517-1.373L80.306,5.712H43.643c-11.2,2.174-17.135,19.08-17.135,19.309a2.854,2.854,0,0,1-2.746,1.945H5.712V51.3a4.044,4.044,0,0,0,4,4h3.08a2.86,2.86,0,0,1,0,5.72H9.707A9.718,9.718,0,0,1,0,51.291v-27.3a2.832,2.832,0,0,1,2.86-2.86H21.826C23.991,15.991,30.732,2.174,42.956,0H82.023A3.144,3.144,0,0,1,84.54,1.373L97.793,23.991h27.872c7.085.572,20.567,5.483,20.567,19.194V58.032A2.843,2.843,0,0,1,143.372,60.892Z" fill="#0e2d4f"/>
      <path id="Trazado_248" data-name="Trazado 248" d="M111.228,68.41H46.34a2.86,2.86,0,0,1,0-5.72h64.888a2.86,2.86,0,1,1,0,5.72Z" transform="translate(-5.215 -7.518)" fill="#0e2d4f"/>
      <path id="Trazado_249" data-name="Trazado 249" d="M43.778,30.917a6.444,6.444,0,0,1-5.6-3.309,6.6,6.6,0,0,1,.114-6.513c.8-1.716,5.826-10.966,12.911-10.966H91.645A3.144,3.144,0,0,1,94.162,11.5l8.8,15.076a2.6,2.6,0,0,1,0,2.86,2.843,2.843,0,0,1-2.517,1.487H43.778C43.892,30.917,43.892,30.917,43.778,30.917Zm7.428-15.076c-2.966,0-6.627,5.483-7.771,7.885,0,.114-.114.229-.229.343a.681.681,0,0,0,0,.8.506.506,0,0,0,.686.343H95.64L90.158,15.85H51.434A1.989,1.989,0,0,0,51.206,15.842Z" transform="translate(-4.483 -1.215)" fill="#0e2d4f"/>
      <path id="Trazado_250" data-name="Trazado 250" d="M160.461,46.036H148.808a2.956,2.956,0,0,1-2.746-2.059c-1.144-4.224-.915-7.657.686-10.165a7.079,7.079,0,0,1,4.8-3.309,4.636,4.636,0,0,1,1.258,0c.343.114,8.114,2.174,10.508,12a2.674,2.674,0,0,1-.572,2.4A3.181,3.181,0,0,1,160.461,46.036Zm-9.373-5.712h5.14a9.413,9.413,0,0,0-4.224-4c-.229.114-.343.343-.572.572A5.184,5.184,0,0,0,151.088,40.325Z" transform="translate(-17.431 -3.652)" fill="#0e2d4f"/>
    </g>
    <path id="Trazado_251" data-name="Trazado 251" d="M12.224,47.326H2.86A2.832,2.832,0,0,1,0,44.466V34.53a2.832,2.832,0,0,1,2.86-2.86H10.4a3.341,3.341,0,0,1,1.03.229,6.969,6.969,0,0,1,4.11,4.11c1.6,4.11-.458,9.135-.8,9.707A2.683,2.683,0,0,1,12.224,47.326ZM5.712,41.615h4.453a6.266,6.266,0,0,0,.114-3.538,1.525,1.525,0,0,0-.572-.686h-4Z" transform="translate(0 -3.798)" fill="#0e2d4f"/>
  </g>
</svg>
