<svg xmlns="http://www.w3.org/2000/svg" width="87.85" height="60" viewBox="0 0 87.85 60">
  <g id="Grupo_332" data-name="Grupo 332" transform="translate(-496 -2077)">
    <path id="Trazado_268" data-name="Trazado 268" d="M692.85,30A30.028,30.028,0,0,1,703.57,7.01,24.136,24.136,0,0,0,695,5.45a24.55,24.55,0,0,0,0,49.1A24.258,24.258,0,0,0,703.56,53,30.088,30.088,0,0,1,692.85,30Zm16.09,26.56A29.715,29.715,0,0,1,695,60a30,30,0,0,1,0-60,29.715,29.715,0,0,1,13.94,3.44A29.564,29.564,0,0,1,722.85,0a30,30,0,0,1,0,60A29.564,29.564,0,0,1,708.94,56.56Zm13.91-2.01A24.55,24.55,0,1,0,714.29,7a24.038,24.038,0,0,0-5.35,2.78,24.523,24.523,0,0,0,0,40.43,23.628,23.628,0,0,0,5.35,2.78A24.123,24.123,0,0,0,722.85,54.55Z" transform="translate(-169 2077)" fill="#fff"/>
    <path id="Trazado_269" data-name="Trazado 269" d="M722.85,17.32a12.766,12.766,0,0,1,2.47.24,12.327,12.327,0,0,1,2.38.72,12.779,12.779,0,0,1,2.19,1.17,12.6,12.6,0,0,1,1.92,1.58,13.224,13.224,0,0,1,1.58,1.92,12.779,12.779,0,0,1,1.17,2.19,12.324,12.324,0,0,1,.72,2.38,12.831,12.831,0,0,1,0,4.94,12.544,12.544,0,0,1-.72,2.38,12.783,12.783,0,0,1-1.17,2.19,12.6,12.6,0,0,1-1.58,1.92,13.225,13.225,0,0,1-1.92,1.58,12.779,12.779,0,0,1-2.19,1.17,12.327,12.327,0,0,1-2.38.72,12.83,12.83,0,0,1-4.94,0A12.327,12.327,0,0,1,718,41.7a12.779,12.779,0,0,1-2.19-1.17,12.6,12.6,0,0,1-1.92-1.58,13.224,13.224,0,0,1-1.58-1.92,12.779,12.779,0,0,1-1.17-2.19,12.324,12.324,0,0,1-.72-2.38,12.831,12.831,0,0,1,0-4.94,12.328,12.328,0,0,1,.72-2.38,12.783,12.783,0,0,1,1.17-2.19,12.6,12.6,0,0,1,1.58-1.92,13.224,13.224,0,0,1,1.92-1.58A12.779,12.779,0,0,1,718,18.28a12.327,12.327,0,0,1,2.38-.72A12.69,12.69,0,0,1,722.85,17.32Z" transform="translate(-169 2077)" fill="#fff"/>
  </g>
</svg>
