<svg xmlns="http://www.w3.org/2000/svg" width="67.911" height="60" viewBox="0 0 67.911 60">
  <path id="Trazado_270" data-name="Trazado 270" d="M230.28,5.94a13.35,13.35,0,0,0-9.44,22.79l24.12,24.12,24.12-24.12a13.351,13.351,0,0,0,0-18.88l-.01-.01a13.259,13.259,0,0,0-9.44-3.91h0a13.236,13.236,0,0,0-9.43,3.91l-.04.04-3.11,3.11a3.052,3.052,0,0,1-4.19,0l-3.14-3.14A13.294,13.294,0,0,0,230.28,5.94ZM244.96,60a2.959,2.959,0,0,1-2.1-.87L216.64,32.91A19.285,19.285,0,0,1,230.28,0a19.112,19.112,0,0,1,13.63,5.65l1.05,1.04,1.05-1.04.06-.06A19.116,19.116,0,0,1,259.64,0h0a19.153,19.153,0,0,1,13.63,5.65l.01.01a19.3,19.3,0,0,1-.01,27.26L247.05,59.14A2.968,2.968,0,0,1,244.96,60Z" transform="translate(-211)" fill="#fff"/>
</svg>
