<svg xmlns="http://www.w3.org/2000/svg" width="63.007" height="63" viewBox="0 0 63.007 63">
  <g id="Grupo_335" data-name="Grupo 335" transform="translate(-77 -2077)">
    <g id="Grupo_155" data-name="Grupo 155" transform="translate(77.002 2077)">
      <g id="Grupo_151" data-name="Grupo 151" transform="translate(-0.002)">
        <path id="Trazado_252" data-name="Trazado 252" d="M3.155,63a3.171,3.171,0,0,1-2.236-.913,3.117,3.117,0,0,1-.756-3.213L5.738,42.115A30.143,30.143,0,0,1,3.155,29.925,29.978,29.978,0,0,1,33.017,0h1.638A29.865,29.865,0,0,1,63,28.161v1.764A29.977,29.977,0,0,1,33.08,59.85a30.033,30.033,0,0,1-12.191-2.583L4.131,62.842A3.335,3.335,0,0,1,3.155,63ZM33.017,6.3A23.624,23.624,0,0,0,11.943,40.478a3.235,3.235,0,0,1,.189,2.426l-4,11.97,11.97-4a3.1,3.1,0,0,1,2.426.189A22.169,22.169,0,0,0,33.08,53.55,23.627,23.627,0,0,0,56.7,29.925h0V28.35A23.49,23.49,0,0,0,34.466,6.3H33.017Z" transform="translate(0.002 0)" fill="#fff"/>
      </g>
      <g id="Grupo_154" data-name="Grupo 154" transform="translate(17.897 20.349)">
        <g id="Grupo_152" data-name="Grupo 152">
          <path id="Trazado_253" data-name="Trazado 253" d="M33.935,12.76H8.83a3.15,3.15,0,1,1,0-6.3H33.9a3.15,3.15,0,0,1,.031,6.3Z" transform="translate(-5.68 -6.46)" fill="#fff"/>
        </g>
        <g id="Grupo_153" data-name="Grupo 153" transform="translate(0 12.883)">
          <path id="Trazado_254" data-name="Trazado 254" d="M33.935,16.85H8.83a3.15,3.15,0,0,1,0-6.3H33.9a3.15,3.15,0,0,1,.031,6.3Z" transform="translate(-5.68 -10.55)" fill="#fff"/>
        </g>
      </g>
    </g>
  </g>
</svg>
