<svg xmlns="http://www.w3.org/2000/svg" width="72" height="60" viewBox="0 0 72 60">
  <g id="Grupo_334" data-name="Grupo 334" transform="translate(-289 -2077)">
    <g id="Grupo_69" data-name="Grupo 69" transform="translate(-201 -1)">
      <path id="Trazado_3" data-name="Trazado 3" d="M475,36H451a15.018,15.018,0,0,0-15,15v6a3,3,0,0,0,6,0V51a9.014,9.014,0,0,1,9-9h24a9.014,9.014,0,0,1,9,9v6a3,3,0,0,0,6,0V51A15.018,15.018,0,0,0,475,36Z" transform="translate(54 2078)" fill="#fff"/>
      <path id="Trazado_4" data-name="Trazado 4" d="M463,6a9,9,0,1,1-9,9A9.014,9.014,0,0,1,463,6Zm0,24a15,15,0,1,0-15-15A15.018,15.018,0,0,0,463,30Z" transform="translate(54 2078)" fill="#fff"/>
      <path id="Trazado_5" data-name="Trazado 5" d="M496.75,36.49a3,3,0,0,0-1.5,5.8A9.006,9.006,0,0,1,502,51v6a3,3,0,0,0,6,0V51A15,15,0,0,0,496.75,36.49Z" transform="translate(54 2078)" fill="#fff"/>
      <path id="Trazado_6" data-name="Trazado 6" d="M484.74.48a3,3,0,1,0-1.49,5.81,9,9,0,0,1,0,17.44,3,3,0,0,0,.74,5.91,3.2,3.2,0,0,0,.75-.09,15,15,0,0,0,0-29.07Z" transform="translate(54 2078)" fill="#fff"/>
    </g>
  </g>
</svg>
