<svg xmlns="http://www.w3.org/2000/svg" width="74.188" height="81.598" viewBox="0 0 74.188 81.598">
  <path id="Trazado_38" data-name="Trazado 38" d="M530.414,125.468a7.371,7.371,0,0,1-6.4-11.11l.033-.042.017-.05a7.407,7.407,0,1,1,6.349,11.2ZM485.9,99.505a7.418,7.418,0,1,1,7.418-7.418A7.423,7.423,0,0,1,485.9,99.505ZM530.414,58.7A7.418,7.418,0,1,1,523,66.116,7.423,7.423,0,0,1,530.414,58.7Zm0,44.516A14.783,14.783,0,0,0,519.9,107.6L500.124,96.08a13.259,13.259,0,0,0,0-8L519.88,76.55a15.731,15.731,0,1,0-3.684-6.432L496.44,81.645a14.836,14.836,0,1,0,0,20.867l19.765,11.52a14.516,14.516,0,0,0-.618,4.01,14.836,14.836,0,1,0,14.828-14.828Z" transform="translate(-471.07 -51.28)" fill="#fff"/>
</svg>
