<svg id="Grupo_168" data-name="Grupo 168" xmlns="http://www.w3.org/2000/svg" width="120" height="120" viewBox="0 0 120 120">
  <g id="Grupo_164" data-name="Grupo 164">
    <path id="Trazado_258" data-name="Trazado 258" d="M60,120a60,60,0,1,1,60-60A60.036,60.036,0,0,1,60,120ZM60,10.909A49.091,49.091,0,1,0,109.091,60,49.165,49.165,0,0,0,60,10.909Z" fill="#0e2d4f"/>
  </g>
  <g id="Grupo_167" data-name="Grupo 167" transform="translate(26.018 37.745)">
    <g id="Grupo_165" data-name="Grupo 165">
      <circle id="Elipse_7" data-name="Elipse 7" cx="10.855" cy="10.855" r="10.855" fill="#c00"/>
    </g>
    <g id="Grupo_166" data-name="Grupo 166" transform="translate(46.255)">
      <circle id="Elipse_8" data-name="Elipse 8" cx="10.855" cy="10.855" r="10.855" fill="#c00"/>
    </g>
  </g>
  <path id="Trazado_259" data-name="Trazado 259" d="M9.952,13.16H64.715c4.418,0,6.545,7.255,3.273,11.236h0C51.188,44.96,25.552,45.669,8.152,26.087L6.843,24.615C3.352,20.687,5.424,13.16,9.952,13.16Z" transform="translate(22.666 58.622)" fill="#0e2d4f"/>
</svg>
