<svg xmlns="http://www.w3.org/2000/svg" width="135" height="101.292" viewBox="0 0 135 101.292">
  <g id="Grupo_171" data-name="Grupo 171" transform="translate(-0.005)">
    <g id="Grupo_169" data-name="Grupo 169" transform="translate(0.005)">
      <path id="Trazado_260" data-name="Trazado 260" d="M67.5,101.292C25.131,101.292,1.553,55.148.6,53.178a5.6,5.6,0,0,1,0-5.008C1.553,46.144,25.131,0,67.5,0s65.952,46.144,66.909,48.114a5.6,5.6,0,0,1,0,5.008C133.457,55.148,109.879,101.292,67.5,101.292ZM12.019,50.646c5.29,9.06,25.21,39.391,55.486,39.391,30.331,0,50.2-30.331,55.486-39.391C117.7,41.586,97.78,11.255,67.5,11.255,37.174,11.255,17.309,41.586,12.019,50.646Z" transform="translate(-0.005)" fill="#c00"/>
    </g>
    <g id="Grupo_170" data-name="Grupo 170" transform="translate(44.996 28.137)">
      <path id="Trazado_261" data-name="Trazado 261" d="M30.509,50.019A22.509,22.509,0,1,1,53.019,27.509,22.5,22.5,0,0,1,30.509,50.019Zm0-33.764A11.255,11.255,0,1,0,41.764,27.509,11.288,11.288,0,0,0,30.509,16.255Z" transform="translate(-8 -5)" fill="#0e2d4f"/>
    </g>
  </g>
</svg>
