<svg id="Grupo_174" data-name="Grupo 174" xmlns="http://www.w3.org/2000/svg" width="96" height="120" viewBox="0 0 96 120">
  <g id="Grupo_172" data-name="Grupo 172">
    <path id="Trazado_262" data-name="Trazado 262" d="M90,120a5.631,5.631,0,0,1-3.48-1.14L48,91.38,9.48,118.86A5.97,5.97,0,0,1,0,114V18A18.053,18.053,0,0,1,18,0H78A18.053,18.053,0,0,1,96,18v96a5.982,5.982,0,0,1-3.24,5.34A6.433,6.433,0,0,1,90,120ZM48,78a5.755,5.755,0,0,1,3.48,1.14L84,102.36V18a6.018,6.018,0,0,0-6-6H18a6.018,6.018,0,0,0-6,6v84.36L44.52,79.14A5.755,5.755,0,0,1,48,78Z" fill="#0e2d4f"/>
  </g>
  <g id="Grupo_173" data-name="Grupo 173" transform="translate(23.7 19.14)">
    <path id="Trazado_263" data-name="Trazado 263" d="M24.77,23.53a11.9,11.9,0,0,1-8.64,3.42,11.758,11.758,0,0,1-8.7-3.48,11.276,11.276,0,0,1-3.48-8.4,11.276,11.276,0,0,1,3.48-8.4,11.758,11.758,0,0,1,8.7-3.48,11.711,11.711,0,0,1,8.64,3.42,11.491,11.491,0,0,1,3.42,8.46A11.491,11.491,0,0,1,24.77,23.53ZM9.05,46.93,41.87,10.45l4.38,2.46L13.37,49.51Zm3.78-28.62a4.168,4.168,0,0,0,3.18,1.32,4.21,4.21,0,0,0,3.24-1.32,4.674,4.674,0,0,0,1.32-3.3,4.21,4.21,0,0,0-1.32-3.24,4.44,4.44,0,0,0-3.18-1.26,4.081,4.081,0,0,0-3.18,1.32,4.532,4.532,0,0,0-1.32,3.24A4.582,4.582,0,0,0,12.83,18.31ZM49.07,51.97a11.759,11.759,0,0,1-8.64,3.48A11.885,11.885,0,0,1,28.31,43.57a11.276,11.276,0,0,1,3.48-8.4,11.759,11.759,0,0,1,8.64-3.48A11.885,11.885,0,0,1,52.55,43.57,11.276,11.276,0,0,1,49.07,51.97ZM37.25,46.81a4.168,4.168,0,0,0,3.18,1.32,4.221,4.221,0,0,0,3.18-1.38,4.873,4.873,0,0,0,0-6.54,4.168,4.168,0,0,0-3.18-1.32,4.221,4.221,0,0,0-3.18,1.38,4.624,4.624,0,0,0-1.26,3.3A4.386,4.386,0,0,0,37.25,46.81Z" transform="translate(-3.95 -3.19)" fill="#c00"/>
  </g>
</svg>
