<svg xmlns="http://www.w3.org/2000/svg" width="120.035" height="120" viewBox="0 0 120.035 120">
  <g id="Grupo_178" data-name="Grupo 178" transform="translate(0.001 -0.005)">
    <g id="Grupo_175" data-name="Grupo 175" transform="translate(0.006 0.005)">
      <path id="Trazado_264" data-name="Trazado 264" d="M60.014,65.447a5.617,5.617,0,0,1-2.455-.6L3,37.568a5.429,5.429,0,0,1,0-9.711L57.559.578a5.431,5.431,0,0,1,4.856,0l54.558,27.279a5.407,5.407,0,0,1,.055,9.711L62.469,64.847A5.617,5.617,0,0,1,60.014,65.447ZM17.677,32.712,60.014,53.881l42.337-21.168L60.014,11.544Z" transform="translate(0 -0.005)" fill="#c00"/>
    </g>
    <g id="Grupo_176" data-name="Grupo 176" transform="translate(-0.001 81.773)">
      <path id="Trazado_265" data-name="Trazado 265" d="M60.02,53.224a5.617,5.617,0,0,1-2.455-.6L3.007,25.345A5.515,5.515,0,0,1,.552,18.035,5.5,5.5,0,0,1,7.863,15.58L60.02,41.658l52.1-26.079a5.453,5.453,0,1,1,4.856,9.766L62.421,52.624A5.216,5.216,0,0,1,60.02,53.224Z" transform="translate(0.001 -14.992)" fill="#0e2d4f"/>
    </g>
    <g id="Grupo_177" data-name="Grupo 177" transform="translate(-0.001 54.494)">
      <path id="Trazado_266" data-name="Trazado 266" d="M60.02,48.224a5.617,5.617,0,0,1-2.455-.6L3.007,20.345A5.515,5.515,0,0,1,.552,13.035,5.467,5.467,0,0,1,7.863,10.58L60.02,36.658l52.1-26.079a5.453,5.453,0,1,1,4.856,9.766L62.421,47.624A5.216,5.216,0,0,1,60.02,48.224Z" transform="translate(0.001 -9.992)" fill="#0e2d4f"/>
    </g>
  </g>
</svg>
