<svg xmlns="http://www.w3.org/2000/svg" width="91.87" height="90.018" viewBox="0 0 91.87 90.018">
  <g id="Grupo_181" data-name="Grupo 181" transform="translate(0 -0.102)">
    <g id="Grupo_72_1_" transform="translate(-0.25 -0.25)">
      <g id="XMLID_4_" transform="translate(0.25 0.25)">
        <g id="Grupo_71_1_">
          <path id="Trazado_139_1_" d="M66.84,44.15v8.27H44.42V36.73H64.39a18.768,18.768,0,0,0,2.46.97Z" fill="#c00"/>
          <path id="Trazado_140_1_" d="M40.92,84.92v1.7H29.42V36.73H40.93V84.92Z" fill="#c00"/>
          <path id="Trazado_141_1_" d="M25.92,40.6V52.42H3.5V36.73H25.92Z" fill="#c00"/>
          <path id="Trazado_142_1_" d="M91.86,19.17a2.163,2.163,0,0,1,0,.36A19.245,19.245,0,0,1,72.81,38.57a2.164,2.164,0,0,1-.36,0,18.671,18.671,0,0,1-2.11-.13V54.17a1.746,1.746,0,0,1-1.75,1.75H67.28v22.5a10,10,0,0,1-9.99,10H44.42a1.748,1.748,0,0,1-1.75,1.7h-15a1.748,1.748,0,0,1-1.75-1.7H14.36a10,10,0,0,1-10-10V55.92H1.75A1.746,1.746,0,0,1,0,54.17V34.98a1.746,1.746,0,0,1,1.75-1.75H14.49c-4.34-1.41-8.02-3.48-9.32-6.46-1.18-2.74-.37-5.75,2.41-8.95,2.99-3.43,6.3-4.9,9.86-4.34,4.34.68,8.76,4.38,13.13,11a68.262,68.262,0,0,1,3.83,6.63c2.97-6.2,10.63-20.55,18.23-20.83a6.343,6.343,0,0,1,2.78.52A19.227,19.227,0,0,1,72.45.11a2.164,2.164,0,0,1,.36,0A19.269,19.269,0,0,1,91.86,19.17ZM84.55,17.6h3.72A15.734,15.734,0,0,0,74.38,3.72V7.43a1.75,1.75,0,0,1-3.5,0V3.72A15.72,15.72,0,0,0,58.24,13a14.884,14.884,0,0,0-.71,1.93,14.566,14.566,0,0,0-.52,2.53.914.914,0,0,1,.07.14h3.63c.07,0,.13.01.2.01a1.745,1.745,0,0,1,1.53,1.94,1.752,1.752,0,0,1-1.74,1.54H57a14.9,14.9,0,0,0,.73,3.29,14.41,14.41,0,0,0,.83,1.99,13.355,13.355,0,0,0,.94,1.64,15.818,15.818,0,0,0,5.74,5.22,15.386,15.386,0,0,0,5.11,1.69c.18.03.36.05.54.07V31.27a1.75,1.75,0,0,1,3.5,0h0v3.72A15.744,15.744,0,0,0,88.28,21.1H84.56a1.75,1.75,0,0,1-.01-3.5ZM66.84,52.42V37.7a18.477,18.477,0,0,1-2.46-.97H44.42V52.42Zm-3.05,26V55.92H44.42v29H57.29a6.5,6.5,0,0,0,6.5-6.5ZM51.05,33.23h8.29a18.33,18.33,0,0,1-2.47-2.88A24.471,24.471,0,0,1,51.05,33.23Zm4.08-5.91a19.028,19.028,0,0,1-1.73-7.79,2.164,2.164,0,0,1,0-.36,18.5,18.5,0,0,1,.73-5.07,2.8,2.8,0,0,0-1.27-.31h-.11c-4.71.18-11.28,10.65-15.13,18.69,5.13-.51,13.13-1.93,17.51-5.16Zm-14.2,59.3V36.73H29.42V86.62Zm-15.01-1.7v-29H7.86v22.5a6.5,6.5,0,0,0,6.5,6.5Zm0-32.5V36.73H3.5V52.42Zm5.37-19.73c-2.86-5.65-8.63-14.85-14.39-15.74a5.257,5.257,0,0,0-.89-.07c-1.99,0-3.9,1.07-5.79,3.25C8.39,22.23,7.78,24,8.38,25.39c1.88,4.32,14.03,6.63,22.91,7.3Z" fill="#0e2d4f"/>
          <path id="Trazado_143_1_" d="M67.06,10.53a1.751,1.751,0,0,1,2.37.69l4.11,7.49,8.89,5.49a1.751,1.751,0,1,1-1.84,2.98L71.3,21.45a1.7,1.7,0,0,1-.61-.64l-4.34-7.89A1.79,1.79,0,0,1,67.06,10.53Z" fill="#0e2d4f"/>
        </g>
      </g>
    </g>
    <g id="Grupo_180" data-name="Grupo 180">
      <g id="XMLID_1_">
        <g id="Grupo_179" data-name="Grupo 179">
          <path id="Trazado_271" data-name="Trazado 271" d="M88.75,19.48a15.428,15.428,0,0,0-.12-1.94h.77a1.94,1.94,0,1,1,0,3.88h-.77A13.751,13.751,0,0,0,88.75,19.48Z" fill="#0e2d4f"/>
          <path id="Trazado_272" data-name="Trazado 272" d="M88.63,17.54a13.846,13.846,0,0,1,.12,1.94,15.428,15.428,0,0,1-.12,1.94H83.08a1.94,1.94,0,1,1,0-3.88Z" fill="#0e2d4f"/>
          <path id="Trazado_273" data-name="Trazado 273" d="M72.64,10.97a1.942,1.942,0,0,0,1.94-1.94V3.49A15.891,15.891,0,0,1,83.16,7.3L81.72,8.74a1.177,1.177,0,0,0,0,1.65,1.159,1.159,0,0,0,.82.34,1.126,1.126,0,0,0,.82-.34l1.45-1.44a16.063,16.063,0,0,1,3.81,8.59H83.07a1.94,1.94,0,1,0,0,3.88h5.55a16.029,16.029,0,0,1-3.81,8.59l-1.45-1.45a1.159,1.159,0,0,0-1.65,0,1.177,1.177,0,0,0,0,1.65l1.45,1.45a16.05,16.05,0,0,1-8.59,3.8V29.92a1.94,1.94,0,0,0-3.88,0v5.54a16.017,16.017,0,0,1-8.59-3.8l1.44-1.45a1.167,1.167,0,0,0-1.65-1.65l-1.44,1.45a16.063,16.063,0,0,1-3.81-8.59h5.54a1.94,1.94,0,0,0,0-3.88H56.64a16.063,16.063,0,0,1,3.81-8.59l1.44,1.44a1.159,1.159,0,0,0,.82.34,1.126,1.126,0,0,0,.82-.34,1.159,1.159,0,0,0,0-1.65L62.1,7.3a15.988,15.988,0,0,1,8.59-3.81V9.03A1.944,1.944,0,0,0,72.64,10.97Zm2.91.87-4.99,6.71a1.553,1.553,0,0,0,.15,2.03l6.84,6.83a1.551,1.551,0,0,0,1.1.45,1.568,1.568,0,0,0,1.1-.45,1.551,1.551,0,0,0,0-2.2l-5.89-5.89,4.19-5.63a1.555,1.555,0,1,0-2.5-1.85Z" fill="#fff"/>
          <path id="Trazado_274" data-name="Trazado 274" d="M86.23,5.89a19.176,19.176,0,0,1,5.64,13.59h-.52a1.942,1.942,0,0,0-1.94-1.94h-.77a16.063,16.063,0,0,0-3.81-8.59l1.14-1.14a1.171,1.171,0,0,0,0-1.66Z" fill="#0e2d4f"/>
          <path id="Trazado_275" data-name="Trazado 275" d="M89.4,21.42a1.942,1.942,0,0,0,1.94-1.94h.52a19.111,19.111,0,0,1-5.64,13.58l-.27-.26a1.159,1.159,0,0,0,0-1.65l-1.14-1.14a16.063,16.063,0,0,0,3.81-8.59Z" fill="#0e2d4f"/>
          <path id="Trazado_276" data-name="Trazado 276" d="M85.95,6.15a1.171,1.171,0,0,1,0,1.66L84.81,8.95A16.161,16.161,0,0,0,83.15,7.3l1.14-1.14A1.18,1.18,0,0,1,85.95,6.15Z" fill="#0e2d4f"/>
          <path id="Trazado_277" data-name="Trazado 277" d="M85.95,31.15a1.163,1.163,0,1,1-1.64,1.65l-1.14-1.14a17.132,17.132,0,0,0,1.65-1.65Z" fill="#0e2d4f"/>
          <path id="Trazado_278" data-name="Trazado 278" d="M84.82,8.94l-1.45,1.44a1.142,1.142,0,0,1-.82.34,1.126,1.126,0,0,1-.82-.34,1.177,1.177,0,0,1,0-1.65l1.44-1.44A17.133,17.133,0,0,1,84.82,8.94Z" fill="#0e2d4f"/>
          <path id="Trazado_279" data-name="Trazado 279" d="M83.37,28.57l1.45,1.45a17.132,17.132,0,0,1-1.65,1.65l-1.45-1.45a1.177,1.177,0,0,1,0-1.65A1.159,1.159,0,0,1,83.37,28.57Z" fill="#0e2d4f"/>
          <path id="Trazado_280" data-name="Trazado 280" d="M79.74,25.21a1.55,1.55,0,0,1-1.1,2.65,1.568,1.568,0,0,1-1.1-.45L70.7,20.58a1.565,1.565,0,0,1-.15-2.03l4.99-6.71a1.558,1.558,0,0,1,2.5,1.86l-4.19,5.63Z" fill="#c00"/>
          <path id="Trazado_281" data-name="Trazado 281" d="M74.58,29.92v5.54a13.846,13.846,0,0,1-1.94.12,15.429,15.429,0,0,1-1.94-.12V29.92a1.94,1.94,0,0,1,3.88,0Z" fill="#0e2d4f"/>
          <path id="Trazado_282" data-name="Trazado 282" d="M74.58,3.49V9.03a1.94,1.94,0,0,1-3.88,0V3.49a13.846,13.846,0,0,1,1.94-.12A12.482,12.482,0,0,1,74.58,3.49Z" fill="#0e2d4f"/>
          <path id="Trazado_283" data-name="Trazado 283" d="M74.58,2.71A1.942,1.942,0,0,0,72.64.77l.02-.51A19.212,19.212,0,0,1,86.24,5.9l-.27.26a1.177,1.177,0,0,0-1.65,0L83.16,7.3a15.957,15.957,0,0,0-8.58-3.81Z" fill="#0e2d4f"/>
          <path id="Trazado_284" data-name="Trazado 284" d="M85.95,32.8l.27.26a19.159,19.159,0,0,1-13.37,5.63l-.02-.51a1.944,1.944,0,0,0,1.74-1.94v-.78a16.017,16.017,0,0,0,8.59-3.8L84.3,32.8a1.159,1.159,0,0,0,.82.34A1.173,1.173,0,0,0,85.95,32.8Z" fill="#0e2d4f"/>
          <path id="Trazado_285" data-name="Trazado 285" d="M70.69,35.47a13.846,13.846,0,0,0,1.94.12,15.429,15.429,0,0,0,1.94-.12v.78a1.958,1.958,0,0,1-1.74,1.94,1.34,1.34,0,0,1-.2.01,1.942,1.942,0,0,1-1.94-1.94v-.79Z" fill="#0e2d4f"/>
          <path id="Trazado_286" data-name="Trazado 286" d="M72.64,3.36a15.428,15.428,0,0,0-1.94.12V2.71a1.94,1.94,0,0,1,3.88,0v.78A13.844,13.844,0,0,0,72.64,3.36Z" fill="#0e2d4f"/>
          <path id="Trazado_287" data-name="Trazado 287" d="M63.54,28.57a1.159,1.159,0,0,1,0,1.65L62.1,31.67a17.132,17.132,0,0,1-1.65-1.65l1.44-1.45A1.159,1.159,0,0,1,63.54,28.57Z" fill="#0e2d4f"/>
          <path id="Trazado_288" data-name="Trazado 288" d="M62.19,17.54a1.94,1.94,0,0,1,0,3.88H56.65a13.846,13.846,0,0,1-.12-1.94,15.428,15.428,0,0,1,.12-1.94Z" fill="#0e2d4f"/>
          <path id="Trazado_289" data-name="Trazado 289" d="M63.54,8.73a1.159,1.159,0,0,1,0,1.65,1.159,1.159,0,0,1-1.64,0L60.46,8.94a16.064,16.064,0,0,1,1.65-1.65Z" fill="#0e2d4f"/>
          <path id="Trazado_290" data-name="Trazado 290" d="M60.97,6.17,62.1,7.3a16.064,16.064,0,0,0-1.65,1.65L59.32,7.82a1.167,1.167,0,1,1,1.65-1.65Z" fill="#0e2d4f"/>
          <path id="Trazado_291" data-name="Trazado 291" d="M62.1,31.66l-1.08,1.08a1.163,1.163,0,1,1-1.64-1.65l1.08-1.08A15.028,15.028,0,0,0,62.1,31.66Z" fill="#0e2d4f"/>
          <path id="Trazado_292" data-name="Trazado 292" d="M70.69,36.24a1.942,1.942,0,0,0,1.94,1.94,1.34,1.34,0,0,0,.2-.01l.02.51a1.62,1.62,0,0,1-.22.01,19.162,19.162,0,0,1-13.58-5.63l.31-.33a1.142,1.142,0,0,0,.82.34,1.167,1.167,0,0,0,.82-.34l1.08-1.08a16.05,16.05,0,0,0,8.59,3.8v.79Z" fill="#0e2d4f"/>
          <path id="Trazado_293" data-name="Trazado 293" d="M72.64.76A1.942,1.942,0,0,0,70.7,2.7v.78a15.955,15.955,0,0,0-8.59,3.81L60.98,6.16a1.159,1.159,0,0,0-1.65,0l-.28-.28A19.176,19.176,0,0,1,72.64.24h.02Z" fill="#0e2d4f"/>
          <path id="Trazado_294" data-name="Trazado 294" d="M55.87,17.54a1.935,1.935,0,0,0-1.94,1.94h-.52A19.135,19.135,0,0,1,59.05,5.89l.28.28a1.159,1.159,0,0,0,0,1.65l1.13,1.13a16.063,16.063,0,0,0-3.81,8.59Z" fill="#0e2d4f"/>
          <path id="Trazado_295" data-name="Trazado 295" d="M56.64,17.54a13.846,13.846,0,0,0-.12,1.94,15.428,15.428,0,0,0,.12,1.94h-.77a1.94,1.94,0,0,1,0-3.88Z" fill="#0e2d4f"/>
          <path id="Trazado_296" data-name="Trazado 296" d="M53.93,19.48a1.935,1.935,0,0,0,1.94,1.94h.77a16.029,16.029,0,0,0,3.81,8.59l-1.08,1.08a1.159,1.159,0,0,0,0,1.65l-.31.33a19.143,19.143,0,0,1-5.65-13.59h.52Z" fill="#0e2d4f"/>
        </g>
      </g>
    </g>
  </g>
</svg>
