<svg xmlns="http://www.w3.org/2000/svg" width="108.02" height="80.1" viewBox="0 0 108.02 80.1">
  <g id="Grupo_184" data-name="Grupo 184" transform="translate(0 -0.25)">
    <g id="Grupo_74_1_" transform="translate(-6.25 -0.25)">
      <g id="XMLID_3_" transform="translate(6.25 0.25)">
        <g id="Grupo_73_1_">
          <path id="Trazado_144_1_" d="M108.02,39.24v28.9a1.519,1.519,0,0,1-1.52,1.52h-5.31c.01.1.01.2.01.3a10.4,10.4,0,0,1-20.79,0c0-.1,0-.2.01-.3H27.23c.01.1.01.2.01.3a10.4,10.4,0,0,1-20.79,0h0c0-.1,0-.2.01-.3H1.52A1.532,1.532,0,0,1,0,68.14V11.68a1.519,1.519,0,0,1,1.52-1.52H19.77A19.141,19.141,0,0,1,36.47.35h.06a19.16,19.16,0,0,1,16.64,9.81H71.69a1.519,1.519,0,0,1,1.52,1.52v9.7H90.18a1.522,1.522,0,0,1,1.07.44l16.33,16.34A1.545,1.545,0,0,1,108.02,39.24Zm-3.04,27.38V39.87L89.54,24.43H73.21V55.64a1.524,1.524,0,0,1-1.51,1.52l-68.66.58v8.87H7.01a10.391,10.391,0,0,1,19.68,0H80.97a10.391,10.391,0,0,1,19.68,0Zm-6.82,3.34c0-.1,0-.2-.01-.3a7.16,7.16,0,0,0-.8-3.04,7.346,7.346,0,0,0-13.09,0,7.16,7.16,0,0,0-.8,3.04c-.01.1-.01.2-.01.3a7.355,7.355,0,0,0,14.71,0ZM70.17,54.13V13.2H54.54A19.135,19.135,0,0,1,36.47,38.6H36.4A19.139,19.139,0,0,1,17.34,19.54v-.06A18.912,18.912,0,0,1,18.4,13.2H3.04V54.7ZM48.47,17.96h4.02a15.868,15.868,0,0,0-2.91-7.8,16.092,16.092,0,0,0-11.59-6.7V7.47A1.536,1.536,0,0,1,36.46,9a1.519,1.519,0,0,1-1.52-1.52V3.46a16.054,16.054,0,0,0-11.58,6.7,15.688,15.688,0,0,0-1.71,3.04,16.328,16.328,0,0,0-1.2,4.76h4.02a1.52,1.52,0,0,1,0,3.04H20.45a16.113,16.113,0,0,0,14.5,14.5V31.48a1.52,1.52,0,1,1,3.04,0h0V35.5a16.112,16.112,0,0,0,14.5-14.49H48.47a1.525,1.525,0,0,1,0-3.05Zm-24.27,52c0-.1,0-.2-.01-.3a7.16,7.16,0,0,0-.8-3.04,7.346,7.346,0,0,0-13.09,0,7.16,7.16,0,0,0-.8,3.04c-.01.1-.01.2-.01.3a7.355,7.355,0,0,0,14.71,0Z" fill="#0e2d4f"/>
          <path id="Trazado_145_1_" d="M98.14,69.66c.01.1.01.2.01.3a7.355,7.355,0,0,1-14.71,0c0-.1,0-.2.01-.3a7.16,7.16,0,0,1,.8-3.04,7.346,7.346,0,0,1,13.09,0A6.882,6.882,0,0,1,98.14,69.66Z" fill="#c00"/>
          <path id="Trazado_146_1_" d="M97.94,41.93v6.59a1.519,1.519,0,0,1-1.52,1.52H81.77a1.522,1.522,0,0,1-1.52-1.47L79.71,32.3a1.518,1.518,0,0,1,1.46-1.57h5.3a1.489,1.489,0,0,1,1.06.43l9.95,9.67A1.569,1.569,0,0,1,97.94,41.93ZM94.9,47V42.57l-9.05-8.8H82.8L83.24,47Z" fill="#0e2d4f"/>
          <path id="Trazado_147_1_" d="M94.9,42.57V47H83.24L82.8,33.77h3.05Z" fill="#c00"/>
          <path id="Trazado_148_1_" d="M30.8,11.15a1.527,1.527,0,0,1,2.07.6h0l4.17,7.6,9.01,5.55a1.518,1.518,0,1,1-1.6,2.58L35.1,21.72a1.581,1.581,0,0,1-.53-.56l-4.36-7.95a1.511,1.511,0,0,1,.58-2.06C30.79,11.16,30.8,11.15,30.8,11.15Z" fill="#0e2d4f"/>
          <path id="Trazado_149_1_" d="M24.19,69.66c.01.1.01.2.01.3a7.35,7.35,0,0,1-14.7,0c0-.1,0-.2.01-.3a7.16,7.16,0,0,1,.8-3.04,7.34,7.34,0,0,1,13.88,3.04Z" fill="#c00"/>
        </g>
      </g>
    </g>
    <g id="Grupo_183" data-name="Grupo 183">
      <g id="XMLID_2_">
        <g id="Grupo_182" data-name="Grupo 182">
          <path id="Trazado_297" data-name="Trazado 297" d="M55.83,19.48h-.52a1.942,1.942,0,0,0-1.94-1.94H52.6a16.063,16.063,0,0,0-3.81-8.59l1.14-1.14a1.171,1.171,0,0,0,0-1.66l.27-.26A19.168,19.168,0,0,1,55.83,19.48Z" fill="#0e2d4f"/>
          <path id="Trazado_298" data-name="Trazado 298" d="M55.31,19.48h.52a19.111,19.111,0,0,1-5.64,13.58l-.27-.26a1.159,1.159,0,0,0,0-1.65l-1.14-1.14a16.063,16.063,0,0,0,3.81-8.59h.77A1.944,1.944,0,0,0,55.31,19.48Z" fill="#0e2d4f"/>
          <path id="Trazado_299" data-name="Trazado 299" d="M53.37,17.54a1.94,1.94,0,0,1,0,3.88H52.6a13.846,13.846,0,0,0,.12-1.94,15.428,15.428,0,0,0-.12-1.94Z" fill="#0e2d4f"/>
          <path id="Trazado_300" data-name="Trazado 300" d="M52.6,17.54a13.846,13.846,0,0,1,.12,1.94,15.428,15.428,0,0,1-.12,1.94H47.05a1.94,1.94,0,0,1,0-3.88Z" fill="#0e2d4f"/>
          <path id="Trazado_301" data-name="Trazado 301" d="M52.6,17.54H47.05a1.94,1.94,0,0,0,0,3.88H52.6a16.029,16.029,0,0,1-3.81,8.59l-1.45-1.45a1.159,1.159,0,0,0-1.65,0,1.177,1.177,0,0,0,0,1.65l1.45,1.45a16.05,16.05,0,0,1-8.59,3.8V29.92a1.94,1.94,0,1,0-3.88,0v5.54a16.017,16.017,0,0,1-8.59-3.8l1.44-1.45a1.167,1.167,0,0,0-1.65-1.65l-1.44,1.45a16.063,16.063,0,0,1-3.81-8.59h5.54a1.94,1.94,0,0,0,0-3.88H20.62a16.063,16.063,0,0,1,3.81-8.59l1.44,1.44a1.159,1.159,0,0,0,.82.34,1.126,1.126,0,0,0,.82-.34,1.159,1.159,0,0,0,0-1.65L26.07,7.3a15.988,15.988,0,0,1,8.59-3.81V9.03a1.94,1.94,0,1,0,3.88,0V3.49A15.891,15.891,0,0,1,47.12,7.3L45.68,8.74a1.177,1.177,0,0,0,0,1.65,1.159,1.159,0,0,0,.82.34,1.126,1.126,0,0,0,.82-.34l1.45-1.44A15.939,15.939,0,0,1,52.6,17.54Zm-8.89,9.87a1.551,1.551,0,0,0,0-2.2l-5.89-5.89,4.19-5.63a1.558,1.558,0,0,0-2.5-1.86l-4.99,6.71a1.553,1.553,0,0,0,.15,2.03l6.84,6.83a1.551,1.551,0,0,0,1.1.45A1.5,1.5,0,0,0,43.71,27.41Z" fill="#fff"/>
          <path id="Trazado_302" data-name="Trazado 302" d="M50.2,5.89l-.27.26a1.177,1.177,0,0,0-1.65,0L47.13,7.3a15.957,15.957,0,0,0-8.58-3.81V2.71A1.942,1.942,0,0,0,36.61.77l.02-.51A19.156,19.156,0,0,1,50.2,5.89Z" fill="#0e2d4f"/>
          <path id="Trazado_303" data-name="Trazado 303" d="M49.92,32.8l.27.26a19.159,19.159,0,0,1-13.37,5.63l-.02-.51a1.944,1.944,0,0,0,1.74-1.94v-.78a16.017,16.017,0,0,0,8.59-3.8l1.14,1.14a1.159,1.159,0,0,0,.82.34A1.208,1.208,0,0,0,49.92,32.8Z" fill="#0e2d4f"/>
          <path id="Trazado_304" data-name="Trazado 304" d="M49.92,6.15a1.171,1.171,0,0,1,0,1.66L48.78,8.95A16.161,16.161,0,0,0,47.12,7.3l1.14-1.14A1.18,1.18,0,0,1,49.92,6.15Z" fill="#0e2d4f"/>
          <path id="Trazado_305" data-name="Trazado 305" d="M49.92,31.15a1.165,1.165,0,0,1-.82,1.99,1.185,1.185,0,0,1-.82-.34l-1.14-1.14a17.132,17.132,0,0,0,1.65-1.65Z" fill="#0e2d4f"/>
          <path id="Trazado_306" data-name="Trazado 306" d="M48.79,8.94l-1.45,1.44a1.142,1.142,0,0,1-.82.34,1.126,1.126,0,0,1-.82-.34,1.177,1.177,0,0,1,0-1.65l1.44-1.44A17.132,17.132,0,0,1,48.79,8.94Z" fill="#0e2d4f"/>
          <path id="Trazado_307" data-name="Trazado 307" d="M47.34,28.57l1.45,1.45a17.132,17.132,0,0,1-1.65,1.65l-1.45-1.45a1.177,1.177,0,0,1,0-1.65A1.159,1.159,0,0,1,47.34,28.57Z" fill="#0e2d4f"/>
          <path id="Trazado_308" data-name="Trazado 308" d="M43.71,25.21a1.55,1.55,0,0,1-1.1,2.65,1.568,1.568,0,0,1-1.1-.45l-6.84-6.83a1.565,1.565,0,0,1-.15-2.03l4.99-6.71a1.558,1.558,0,0,1,2.5,1.86l-4.19,5.63Z" fill="#c00"/>
          <path id="Trazado_309" data-name="Trazado 309" d="M38.55,35.47v.78a1.958,1.958,0,0,1-1.74,1.94,1.34,1.34,0,0,1-.2.01,1.942,1.942,0,0,1-1.94-1.94v-.78a13.846,13.846,0,0,0,1.94.12A15.542,15.542,0,0,0,38.55,35.47Z" fill="#0e2d4f"/>
          <path id="Trazado_310" data-name="Trazado 310" d="M38.55,29.92v5.54a13.846,13.846,0,0,1-1.94.12,15.428,15.428,0,0,1-1.94-.12V29.92a1.94,1.94,0,1,1,3.88,0Z" fill="#0e2d4f"/>
          <path id="Trazado_311" data-name="Trazado 311" d="M38.55,3.49V9.03a1.94,1.94,0,1,1-3.88,0V3.49a15.742,15.742,0,0,1,3.88,0Z" fill="#0e2d4f"/>
          <path id="Trazado_312" data-name="Trazado 312" d="M38.55,2.71v.78a13.846,13.846,0,0,0-1.94-.12,13.989,13.989,0,0,0-1.95.12V2.71a1.945,1.945,0,0,1,3.89,0Z" fill="#0e2d4f"/>
          <path id="Trazado_313" data-name="Trazado 313" d="M36.81,38.18l.02.51a1.62,1.62,0,0,1-.22.01,19.162,19.162,0,0,1-13.58-5.63l.31-.33a1.142,1.142,0,0,0,.82.34,1.167,1.167,0,0,0,.82-.34l1.08-1.08a16.05,16.05,0,0,0,8.59,3.8v.78a1.942,1.942,0,0,0,1.94,1.94A.809.809,0,0,0,36.81,38.18Z" fill="#0e2d4f"/>
          <path id="Trazado_314" data-name="Trazado 314" d="M36.62.25,36.6.76A1.942,1.942,0,0,0,34.66,2.7v.78a15.955,15.955,0,0,0-8.59,3.81L24.94,6.16a1.159,1.159,0,0,0-1.65,0l-.28-.28A19.227,19.227,0,0,1,36.6.25Z" fill="#0e2d4f"/>
          <path id="Trazado_315" data-name="Trazado 315" d="M27.51,8.73a1.159,1.159,0,0,1,0,1.65,1.159,1.159,0,0,1-1.64,0L24.43,8.94a16.064,16.064,0,0,1,1.65-1.65Z" fill="#0e2d4f"/>
          <path id="Trazado_316" data-name="Trazado 316" d="M27.51,28.57a1.159,1.159,0,0,1,0,1.65l-1.44,1.45a17.132,17.132,0,0,1-1.65-1.65l1.44-1.45A1.159,1.159,0,0,1,27.51,28.57Z" fill="#0e2d4f"/>
          <path id="Trazado_317" data-name="Trazado 317" d="M26.15,17.54a1.94,1.94,0,1,1,0,3.88H20.61a13.846,13.846,0,0,1-.12-1.94,15.428,15.428,0,0,1,.12-1.94Z" fill="#0e2d4f"/>
          <path id="Trazado_318" data-name="Trazado 318" d="M24.94,6.17,26.07,7.3a16.064,16.064,0,0,0-1.65,1.65L23.29,7.82a1.167,1.167,0,1,1,1.65-1.65Z" fill="#0e2d4f"/>
          <path id="Trazado_319" data-name="Trazado 319" d="M26.07,31.66l-1.08,1.08a1.163,1.163,0,1,1-1.64-1.65l1.08-1.08A15.028,15.028,0,0,0,26.07,31.66Z" fill="#0e2d4f"/>
          <path id="Trazado_320" data-name="Trazado 320" d="M23.29,7.82l1.13,1.13a16.063,16.063,0,0,0-3.81,8.59h-.77a1.935,1.935,0,0,0-1.94,1.94h-.52A19.135,19.135,0,0,1,23.02,5.89l.28.28A1.15,1.15,0,0,0,23.29,7.82Z" fill="#0e2d4f"/>
          <path id="Trazado_321" data-name="Trazado 321" d="M24.42,30.02,23.34,31.1a1.159,1.159,0,0,0,0,1.65l-.31.33a19.143,19.143,0,0,1-5.65-13.59h.52a1.935,1.935,0,0,0,1.94,1.94h.77A16.1,16.1,0,0,0,24.42,30.02Z" fill="#0e2d4f"/>
          <path id="Trazado_322" data-name="Trazado 322" d="M19.84,17.54h.77a13.846,13.846,0,0,0-.12,1.94,15.428,15.428,0,0,0,.12,1.94h-.77a1.94,1.94,0,0,1,0-3.88Z" fill="#0e2d4f"/>
        </g>
      </g>
    </g>
  </g>
</svg>
