<svg xmlns="http://www.w3.org/2000/svg" width="122.27" height="122.27" viewBox="0 0 122.27 122.27">
  <g id="Grupo_336" data-name="Grupo 336" transform="translate(-83 -472)">
    <path id="Trazado_26" data-name="Trazado 26" d="M6.11,43.79A6.109,6.109,0,0,1,0,37.68V19.34A18.364,18.364,0,0,1,18.34,1H36.68a6.11,6.11,0,1,1,0,12.22H18.34a6.122,6.122,0,0,0-6.11,6.11V37.67A6.114,6.114,0,0,1,6.11,43.79Zm110.05,0a6.109,6.109,0,0,1-6.11-6.11V19.34a6.116,6.116,0,0,0-6.11-6.11H85.59A6.115,6.115,0,0,1,85.59,1h18.34a18.364,18.364,0,0,1,18.34,18.34V37.68A6.1,6.1,0,0,1,116.16,43.79ZM36.68,123.27H18.34A18.364,18.364,0,0,1,0,104.93V86.59a6.11,6.11,0,1,1,12.22,0v18.34a6.116,6.116,0,0,0,6.11,6.11H36.67a6.115,6.115,0,0,1,.01,12.23Zm67.25,0H85.59a6.11,6.11,0,1,1,0-12.22h18.34a6.116,6.116,0,0,0,6.11-6.11V86.59a6.11,6.11,0,1,1,12.22,0v18.34A18.349,18.349,0,0,1,103.93,123.27Z" transform="translate(83 471)" fill="#0e2d4f"/>
    <path id="Trazado_27" data-name="Trazado 27" d="M116.16,68.25H6.11a6.11,6.11,0,0,1,0-12.22H116.15a6.11,6.11,0,0,1,.01,12.22Z" transform="translate(83 471)" fill="#c00"/>
  </g>
</svg>
