<svg xmlns="http://www.w3.org/2000/svg" width="122.27" height="122.27" viewBox="0 0 122.27 122.27">
  <g id="Grupo_337" data-name="Grupo 337" transform="translate(-350 -471)">
    <path id="Trazado_28" data-name="Trazado 28" d="M273.11,42.79A6.116,6.116,0,0,1,267,36.68V18.34A18.364,18.364,0,0,1,285.34,0h18.34a6.11,6.11,0,0,1,0,12.22H285.34a6.116,6.116,0,0,0-6.11,6.11V36.67A6.114,6.114,0,0,1,273.11,42.79Zm110.05,0a6.109,6.109,0,0,1-6.11-6.11V18.34a6.116,6.116,0,0,0-6.11-6.11H352.6A6.115,6.115,0,0,1,352.59,0h18.34a18.364,18.364,0,0,1,18.34,18.34V36.68A6.1,6.1,0,0,1,383.16,42.79Zm-79.48,79.48H285.34A18.364,18.364,0,0,1,267,103.93V85.59a6.11,6.11,0,1,1,12.22,0v18.34a6.116,6.116,0,0,0,6.11,6.11h18.34a6.115,6.115,0,0,1,.01,12.23Zm67.25,0H352.59a6.11,6.11,0,0,1,0-12.22h18.34a6.116,6.116,0,0,0,6.11-6.11V85.59a6.11,6.11,0,1,1,12.22,0v18.34A18.349,18.349,0,0,1,370.93,122.27Z" transform="translate(83 471)" fill="#0e2d4f"/>
    <path id="Trazado_29" data-name="Trazado 29" d="M303.29,34.32a1.711,1.711,0,0,0-1.71,1.72V86.48a1.711,1.711,0,0,0,1.71,1.72h50.45a1.718,1.718,0,0,0,1.71-1.72V36.04a1.718,1.718,0,0,0-1.71-1.72Zm50.45,66.11H303.29a13.958,13.958,0,0,1-13.94-13.94V36.04a13.96,13.96,0,0,1,13.94-13.95h50.45a13.96,13.96,0,0,1,13.94,13.95V86.48A13.966,13.966,0,0,1,353.74,100.43Z" transform="translate(83 471)" fill="#c00"/>
    <path id="Trazado_30" data-name="Trazado 30" d="M307.76,53.35V43.76a2.007,2.007,0,0,1,.58-1.42,1.892,1.892,0,0,1,.65-.43,2.031,2.031,0,0,1,.77-.15h9.59a2.007,2.007,0,0,1,1.42.58,1.892,1.892,0,0,1,.43.65,1.994,1.994,0,0,1,.15.77v9.59a2.007,2.007,0,0,1-.58,1.42,1.8,1.8,0,0,1-.65.43,2.031,2.031,0,0,1-.77.15h-9.59a2.007,2.007,0,0,1-1.42-.58,1.892,1.892,0,0,1-.43-.65A2.031,2.031,0,0,1,307.76,53.35Z" transform="translate(83 471)" fill="#0e2d4f"/>
    <path id="Trazado_31" data-name="Trazado 31" d="M307.76,77.81V65.5a2.007,2.007,0,0,1,.58-1.42,1.892,1.892,0,0,1,.65-.43,2.031,2.031,0,0,1,.77-.15h12.3a2.007,2.007,0,0,1,1.42.58,1.892,1.892,0,0,1,.43.65,2.031,2.031,0,0,1,.15.77V77.8a2.007,2.007,0,0,1-.58,1.42,1.892,1.892,0,0,1-.65.43,2.031,2.031,0,0,1-.77.15h-12.3a2.007,2.007,0,0,1-1.42-.58,1.892,1.892,0,0,1-.43-.65A1.98,1.98,0,0,1,307.76,77.81Z" transform="translate(83 471)" fill="#0e2d4f"/>
    <path id="Trazado_32" data-name="Trazado 32" d="M328.14,61.5V43.77a2.007,2.007,0,0,1,.58-1.42,1.892,1.892,0,0,1,.65-.43,2.031,2.031,0,0,1,.77-.15h17.74a2.007,2.007,0,0,1,1.42.58,1.892,1.892,0,0,1,.43.65,1.994,1.994,0,0,1,.15.77V61.5a2.007,2.007,0,0,1-.58,1.42,1.8,1.8,0,0,1-.65.43,2.031,2.031,0,0,1-.77.15H330.14a2.007,2.007,0,0,1-1.42-.58,1.892,1.892,0,0,1-.43-.65A2.031,2.031,0,0,1,328.14,61.5Z" transform="translate(83 471)" fill="#0e2d4f"/>
  </g>
</svg>
