<svg xmlns="http://www.w3.org/2000/svg" width="122.28" height="122.27" viewBox="0 0 122.28 122.27">
  <g id="Grupo_338" data-name="Grupo 338" transform="translate(-613.99 -472)">
    <path id="Trazado_24" data-name="Trazado 24" d="M647.16,80.48a6.116,6.116,0,0,1,6.11,6.11v18.34a18.364,18.364,0,0,1-18.34,18.34H616.59a6.11,6.11,0,0,1,0-12.22h18.34a6.116,6.116,0,0,0,6.11-6.11V86.59A6.112,6.112,0,0,1,647.16,80.48Zm-110.05,0a6.109,6.109,0,0,1,6.11,6.11v18.34a6.116,6.116,0,0,0,6.11,6.11h18.34a6.11,6.11,0,0,1,0,12.22H549.33a18.364,18.364,0,0,1-18.34-18.34V86.59A6.118,6.118,0,0,1,537.11,80.48ZM616.59,1h18.34a18.364,18.364,0,0,1,18.34,18.34V37.68a6.11,6.11,0,1,1-12.22,0V19.34a6.116,6.116,0,0,0-6.11-6.11H616.6A6.115,6.115,0,0,1,616.59,1ZM549.34,1h18.34a6.11,6.11,0,0,1,0,12.22H549.34a6.116,6.116,0,0,0-6.11,6.11V37.67a6.115,6.115,0,0,1-12.23.01V19.34A18.364,18.364,0,0,1,549.34,1Z" transform="translate(83 471)" fill="#0e2d4f"/>
    <path id="Trazado_25" data-name="Trazado 25" d="M563.36,66.46a6.1,6.1,0,0,0,8.64,0l14.02-14.02V86.59a6.11,6.11,0,1,0,12.22,0V52.44l14.02,14.02a6.109,6.109,0,0,0,8.64-8.64L596.45,33.37a6.261,6.261,0,0,0-1.99-1.33,6.11,6.11,0,0,0-2.34-.47,6.344,6.344,0,0,0-2.34.47,6.1,6.1,0,0,0-1.99,1.33L563.34,57.82A6.12,6.12,0,0,0,563.36,66.46Z" transform="translate(83 471)" fill="#c00"/>
  </g>
</svg>
