<svg xmlns="http://www.w3.org/2000/svg" width="122.27" height="123.09" viewBox="0 0 122.27 123.09">
  <g id="Grupo_339" data-name="Grupo 339" transform="translate(-878 -471)">
    <path id="Trazado_33" data-name="Trazado 33" d="M904.84,102.09a8.591,8.591,0,0,1-8.58,8.58H816.01a8.583,8.583,0,0,1-8.57-8.58V80.83a8.591,8.591,0,0,1,8.58-8.58h80.25a8.583,8.583,0,0,1,8.57,8.58v21.26Zm0-40.4a20.8,20.8,0,0,0-8.57-1.87H816.02a20.7,20.7,0,0,0-8.58,1.88V50.92a8.591,8.591,0,0,1,8.58-8.58h80.25a8.583,8.583,0,0,1,8.57,8.58ZM816.01,12.43h80.25a8.583,8.583,0,0,1,8.57,8.58V31.78a20.8,20.8,0,0,0-8.57-1.87H816.01a20.848,20.848,0,0,0-8.58,1.87V21.01A8.591,8.591,0,0,1,816.01,12.43ZM896.26,0H816.01A21.027,21.027,0,0,0,795,21.01v81.07a21.027,21.027,0,0,0,21.01,21.01h80.25a21.027,21.027,0,0,0,21.01-21.01V21.01A21.027,21.027,0,0,0,896.26,0Z" transform="translate(83 471)" fill="#0e2d4f"/>
    <path id="Trazado_34" data-name="Trazado 34" d="M886.19,85.24H827.54a6.22,6.22,0,0,0,0,12.44h58.65a6.22,6.22,0,0,0,0-12.44Z" transform="translate(83 471)" fill="#c00"/>
  </g>
</svg>
